<?xml version="1.0" encoding="UTF-8" standalone="no"?>
<svg id="xivauth_logo_angled" viewBox="0 0 16.137 16.137" version="1.1" xmlns="http://www.w3.org/2000/svg">
  <!-- (c) 2026, The XIVAuth Project. All rights reserved. -->
  <!-- This (paid) logo courtesy of https://www.valencygraphics.com/. It was a real pleasure working with you! -->
  <g id="KeyLogo" transform="translate(1.3225, 0) rotate(45, 7.2434648, 10.029659)" style="fill: #00a8e8;">
    <path d="m 7.94,12.43 v -2.35 c 0,0 0.55,-0.59 0.55,-0.59 L 5.76,8.06 C 5.76,8.01 5.77,7.95 5.79,7.9 5.94,7.51 6.13,7.24 6.61,7.19 L 7.95,6.99 C 8.13,6.96 8.27,6.8 8.27,6.61 v -1.6 c 0,0 -0.22,-0.19 -0.36,-0.29 -0.13,-0.1 -0.14,-0.2 0,-0.3 C 8.06,4.31 8.26,4.13 8.26,4.13 8.09,0.77 5.86,0 4.57,0 3.28,0 1.05,0.77 0.88,4.13 c 0,0 0.19,0.18 0.35,0.29 0.14,0.1 0.13,0.2 0,0.3 -0.14,0.1 -0.36,0.29 -0.36,0.29 v 1.6 C 0.87,6.8 1,6.96 1.19,6.99 l 1.34,0.2 C 3,7.23 3.14,7.54 3.35,7.9 3.37,7.94 3.37,7.98 3.38,8.03 L 0.8,9.49 1.63,10.39 V 9.88 c 0,0 1.9,-1.08 1.9,-1.08 0,0 0.04,0.45 1.12,0.45 1.08,0 1.11,-0.45 1.11,-0.45 l 1.9,1.08 v 2.74 c 0,0 0.88,0.5 0.88,0.5 l -1.3,0.74 v 0.39 c 0,0 1.9,-1.13 1.9,-1.13 L 7.93,12.43 Z M 4.57,3.11 C 3.83,3.11 3.23,2.5 3.23,1.77 c 0,-0.73 0.61,-1.34 1.34,-1.34 0.73,0 1.34,0.6 1.34,1.34 0,0.74 -0.6,1.34 -1.34,1.34 z"
          id="KeyBow" />
    <path d="m 7.49,12.75 v -2.71 c 0,0 -1.61,-0.91 -1.61,-0.91 0,0 -0.24,0.46 -1.24,0.46 -1,0 -1.24,-0.46 -1.24,-0.46 l -1.59,0.88 v 1.24 c 0,0 0.72,0.41 0.72,0.41 v 0.8 c 0,0 -1,0.85 -1,0.85 V 14 c 0,0 1.4,0.8 1.4,0.8 v 1.16 c 0,0 0.62,0.62 0.62,0.62 l 0.62,-0.62 v -1.37 c 0,0 0.46,-0.26 0.46,-0.26 L 3.51,13.69 v -2.85 c 0,0 1.12,-0.98 1.12,-0.98 l 1.85,1.06 -0.72,0.41 v 1.16 c 0,0 0.49,0.28 0.49,0.28 v 1.84 c 0,0 -0.89,0.51 -0.89,0.51 l 0.46,0.26 v 3.47 c 0,0 0.62,0.62 0.62,0.62 l 0.62,-0.62 v -5.11 c 0,0 1.06,-0.61 1.06,-0.61 L 7.47,12.76 Z"
          id="KeyBlade" />
  </g>
</svg>
