<?xml version="1.0" encoding="UTF-8" standalone="no"?>
<svg viewBox="0 0 163.89161 47.267304" version="1.1" width="163.8916" height="47.267303" xmlns="http://www.w3.org/2000/svg">
  <!--
    This (paid) logo courtesy of https://www.valencygraphics.com/. It was a real pleasure working with you!
  -->
  <g transform="matrix(2.4653313,0,0,2.4653313,25.907006,-0.75661039)">
    <g>
      <g>
        <path d="m 19.51,17.33 c -0.24,0 -0.6,-0.21 -0.6,-0.58 V 2.89 c 0,-0.65 0.47,-0.88 0.59,-0.88 V 1.67 h -3.09 v 0.34 c 0.24,0 0.68,0.38 0.68,0.87 V 16.7 c 0,0.4 -0.47,0.63 -0.68,0.63 v 0.34 h 3.09 v -0.34 z"/>
        <path d="m 9.74,1.67 h 3.25 V 2 c 0,0 -0.35,0.1 -0.54,0.23 -0.19,0.13 -0.36,0.35 -0.31,0.54 0.05,0.19 0.74,3.1 0.74,3.1 0,0 0.82,-3.18 0.86,-3.34 C 13.78,2.37 13.76,2.06 13.48,2 V 1.67 h 2.53 V 2 c 0,0 -0.44,0.09 -0.66,0.29 -0.22,0.2 -0.33,0.52 -0.37,0.72 -0.04,0.19 -1.42,6.31 -1.42,6.31 0,0 1.41,6.66 1.46,6.9 0.08,0.42 0.44,1.02 1,1.12 v 0.34 h -3.29 v -0.33 c 0,0 0.5,-0.11 0.66,-0.44 0.16,-0.33 0.06,-0.77 0.04,-0.83 -0.02,-0.06 -0.76,-3.02 -0.76,-3.02 0,0 -0.83,3.27 -0.86,3.39 -0.03,0.13 -0.04,0.79 0.52,0.89 v 0.34 H 9.81 v -0.33 c 0,0 0.6,-0.13 0.73,-0.72 0.13,-0.59 1.47,-6.78 1.47,-6.78 0,0 -1.4,-6.78 -1.44,-7.01 C 10.53,2.61 10.38,2.18 9.75,2.01 V 1.68 Z"/>
        <path d="m 25.2,1.67 v 0.35 c 0.16,0 0.5,0.2 0.45,0.71 -0.05,0.51 -1.72,9.72 -1.72,9.72 0,0 -1.77,-9.55 -1.77,-9.74 0,-0.19 0.06,-0.59 0.53,-0.69 V 1.67 h -2.87 v 0.34 c 0.25,0 0.54,0.32 0.57,0.61 0.02,0.15 1.58,9.94 2.17,13.64 v 0.44 c 0,0.4 -0.43,0.63 -0.61,0.63 v 0.34 h 1.4 v -0.02 h 0.63 v 0.02 h 1.39 v -0.34 c -0.22,0 -0.53,-0.21 -0.54,-0.57 L 27.07,2.77 c 0,0 -0.02,-0.64 0.65,-0.73 V 1.68 h -2.51 z"/>
      </g>
      <g>
        <path d="m 29.36,11.7 -0.97,5.96 H 27.47 L 30.15,1.63 h 1.34 L 34.3,17.66 H 33.33 L 32.31,11.7 h -2.94 z m 2.8,-0.85 C 31.4,6.49 30.95,3.62 30.83,2.41 h -0.05 c -0.05,1.16 -0.72,4.94 -1.26,8.44 h 2.65 z"/>
        <path d="m 36.69,1.63 v 12.73 c 0,1.48 0.55,2.62 2,2.62 1.45,0 2,-0.96 2,-2.6 V 1.63 h 0.95 v 12.68 c 0,2.43 -1.08,3.54 -2.97,3.54 -1.89,0 -2.9,-1.11 -2.9,-3.47 V 1.63 Z"/>
        <path d="M 45.33,2.48 H 42.71 V 1.63 h 6.11 v 0.85 h -2.57 v 15.19 h -0.92 z"/>
        <path d="m 50.1,1.63 h 0.92 V 8.6 h 4.03 V 1.63 h 0.92 V 17.66 H 55.05 V 9.45 h -4.03 v 8.21 H 50.1 Z"/>
      </g>
    </g>
    <g transform="matrix(0.84014008,0.84014008,-0.84014008,0.84014008,1.1190096,-1.6078163)">
      <path d="m 7.13,12.43 v -2.35 c 0,0 0.55,-0.59 0.55,-0.59 L 4.95,8.06 C 4.95,8.01 4.96,7.95 4.98,7.9 5.13,7.51 5.32,7.24 5.8,7.19 L 7.14,6.99 C 7.32,6.96 7.46,6.8 7.46,6.61 V 5.01 C 7.46,5.01 7.24,4.82 7.1,4.72 6.97,4.62 6.96,4.52 7.1,4.42 7.25,4.31 7.45,4.13 7.45,4.13 7.28,0.77 5.05,0 3.76,0 2.47,0 0.24,0.77 0.07,4.13 c 0,0 0.19,0.18 0.35,0.29 0.14,0.1 0.13,0.2 0,0.3 -0.14,0.1 -0.36,0.29 -0.36,0.29 v 1.6 c 0,0.19 0.13,0.35 0.32,0.38 l 1.34,0.2 C 2.19,7.23 2.33,7.54 2.54,7.9 2.56,7.94 2.56,7.98 2.57,8.03 l -2.58,1.46 0.83,0.9 V 9.88 c 0,0 1.9,-1.08 1.9,-1.08 0,0 0.04,0.45 1.12,0.45 1.08,0 1.11,-0.45 1.11,-0.45 l 1.9,1.08 v 2.74 c 0,0 0.88,0.5 0.88,0.5 l -1.3,0.74 v 0.39 c 0,0 1.9,-1.13 1.9,-1.13 L 7.12,12.43 Z M 3.76,3.11 C 3.02,3.11 2.42,2.5 2.42,1.77 c 0,-0.73 0.61,-1.34 1.34,-1.34 0.73,0 1.34,0.6 1.34,1.34 0,0.74 -0.6,1.34 -1.34,1.34 z"/>
      <path d="m 6.68,12.75 v -2.71 c 0,0 -1.61,-0.91 -1.61,-0.91 0,0 -0.24,0.46 -1.24,0.46 -1,0 -1.24,-0.46 -1.24,-0.46 L 1,10.01 v 1.24 c 0,0 0.72,0.41 0.72,0.41 v 0.8 c 0,0 -1,0.85 -1,0.85 V 14 c 0,0 1.4,0.8 1.4,0.8 v 1.16 c 0,0 0.62,0.62 0.62,0.62 l 0.62,-0.62 v -1.37 c 0,0 0.46,-0.26 0.46,-0.26 L 2.7,13.69 v -2.85 c 0,0 1.12,-0.98 1.12,-0.98 l 1.85,1.06 -0.72,0.41 v 1.16 c 0,0 0.49,0.28 0.49,0.28 v 1.84 c 0,0 -0.89,0.51 -0.89,0.51 l 0.46,0.26 v 3.47 c 0,0 0.62,0.62 0.62,0.62 l 0.62,-0.62 v -5.11 c 0,0 1.06,-0.61 1.06,-0.61 L 6.66,12.76 Z"/>
    </g>
  </g>
</svg>
