<?xml version="1.0" encoding="UTF-8" standalone="no"?>
<!DOCTYPE svg PUBLIC "-//W3C//DTD SVG 1.1//EN" "http://www.w3.org/Graphics/SVG/1.1/DTD/svg11.dtd">
<svg width="68" height="68" viewBox="0 0 68 68" version="1.1" xmlns="http://www.w3.org/2000/svg" xmlns:xlink="http://www.w3.org/1999/xlink" xml:space="preserve" xmlns:serif="http://www.serif.com/" style="fill-rule:evenodd;clip-rule:evenodd;stroke-linejoin:round;stroke-miterlimit:2;">
    <g transform="matrix(4.16667,0,0,4.16667,-123.159,-8.35182)">
        <g id="Page-2" serif:id="Page 2" transform="matrix(1.19487,0,0,1,29.5582,2.00444)">
            <rect x="0" y="0" width="13.474" height="16.15" style="fill:none;"/>
            <clipPath id="_clip1">
                <rect x="0" y="0" width="13.474" height="16.15"/>
            </clipPath>
            <g clip-path="url(#_clip1)" style="fill:#E82222">
                <g transform="matrix(0.836913,0,0,1,0.26181,0)">
                    <g id="Layer-1" serif:id="Layer 1">
                        <g>
                            <g transform="matrix(1,0,0,1,11.2315,9.4119)">
                                <path d="M0,-6.165C-0.518,-6.693 -0.518,-7.538 0.005,-8.061C0.528,-8.584 1.373,-8.584 1.896,-8.061C2.414,-7.544 2.419,-6.693 1.896,-6.17C1.373,-5.647 0.528,-5.647 0,-6.165M-4.213,2.803L-2.554,1.144L-1.748,1.112L-2.67,-1.831C-2.626,-1.864 -2.582,-1.899 -2.536,-1.918C-2.155,-2.087 -1.822,-2.145 -1.453,-1.839L-0.359,-1.031C-0.211,-0.925 0.005,-0.941 0.137,-1.073L1.268,-2.203C1.268,-2.203 1.246,-2.499 1.22,-2.663C1.199,-2.821 1.262,-2.906 1.431,-2.874C1.616,-2.848 1.886,-2.832 1.886,-2.832C4.141,-5.33 3.106,-7.454 2.197,-8.362C1.283,-9.276 -0.84,-10.311 -3.333,-8.051C-3.333,-8.051 -3.322,-7.787 -3.291,-7.596C-3.259,-7.427 -3.344,-7.364 -3.502,-7.385C-3.671,-7.417 -3.962,-7.433 -3.962,-7.433L-5.092,-6.302C-5.224,-6.17 -5.245,-5.959 -5.134,-5.806L-4.326,-4.712C-4.025,-4.348 -4.141,-4.031 -4.247,-3.63C-4.258,-3.586 -4.29,-3.553 -4.317,-3.517L-7.175,-4.314L-7.23,-3.09L-6.867,-3.453L-4.758,-2.877C-4.758,-2.877 -5.042,-2.529 -4.284,-1.771C-3.533,-1.02 -3.186,-1.305 -3.186,-1.305L-2.609,0.804L-4.544,2.74L-4.276,3.719L-5.714,3.324L-5.99,3.601L-3.849,4.146L-4.213,2.803Z" style="fill-rule:nonzero;"/>
                            </g>
                            <g transform="matrix(1,0,0,1,6.4759,10.1994)">
                                <path d="M0,1.929L1.917,0.012L1.428,-1.77C1.428,-1.77 0.933,-1.62 0.23,-2.323C-0.473,-3.026 -0.323,-3.521 -0.323,-3.521L-2.066,-4.022L-2.94,-3.148L-2.722,-2.346L-3.287,-1.781L-4.594,-1.887L-5.081,-1.4L-4.658,0.161L-5.476,0.979L-5.474,1.859L-4.598,1.856L-3.627,0.885L-3.118,1.025L-3.455,-0.218L-1.441,-2.231L0.042,-2.135L0.601,-0.074L-0.196,-0.291L-1.019,0.532L-0.871,1.08L-2.17,2.379L-3.159,2.111L-3.02,2.62L-5.474,5.07L-5.474,5.946L-4.596,5.951L-0.98,2.334L0.196,2.654L0,1.929Z" style="fill-rule:nonzero;"/>
                            </g>
                        </g>
                    </g>
                </g>
            </g>
        </g>
    </g>
</svg>
